Coordinates
version=1
nRows=33
nColumns=34
inDegrees=no

Units are S.I. units (second, meters, Newtons, ...)
If the header above contains a line with 'inDegrees', this indicates whether rotational values are in degrees (yes) or radians (no).

endheader
time	pelvis_tilt	pelvis_list	pelvis_rotation	pelvis_tx	pelvis_ty	pelvis_tz	hip_flexion_r	hip_adduction_r	hip_rotation_r	knee_angle_r	ankle_angle_r	subtalar_angle_r	mtp_angle_r	hip_flexion_l	hip_adduction_l	hip_rotation_l	knee_angle_l	ankle_angle_l	subtalar_angle_l	mtp_angle_l	lumbar_extension	lumbar_bending	lumbar_rotation	arm_flex_r	arm_add_r	arm_rot_r	elbow_flex_r	pro_sup_r	arm_flex_l	arm_add_l	arm_rot_l	elbow_flex_l	pro_sup_l
0	-0.122387	0.028813	0.00229062	-1.14253	1.2696	-0.581373	0.131911	-0.0590996	-0.119882	0.175934	0.334344	0.218613	0	0.0871429	0.0100256	0.074329	0.0688979	0.202061	-0.0152541	0	-0.0246633	-0.0261108	-0.036945	-0.0202383	-0.142042	0.0664094	0.549825	2.09	-0.00162593	-0.149321	0.106797	0.468135	2.09
0.01	-0.123492	0.0290633	0.00211378	-1.14244	1.26949	-0.581289	0.136022	-0.0593779	-0.118241	0.181804	0.336669	0.21778	0	0.088645	0.0102593	0.0741545	0.0697868	0.20261	-0.0152256	0	-0.0257489	-0.0262244	-0.0368506	-0.0226114	-0.143242	0.0640464	0.548492	2.09	-0.00378729	-0.149888	0.0988935	0.463697	2.09
0.02	-0.125109	0.0298343	0.00181881	-1.14237	1.26931	-0.581177	0.140671	-0.0602113	-0.117538	0.187456	0.339166	0.21777	0	0.0909105	0.0109996	0.0733941	0.0710614	0.203495	-0.0144997	0	-0.0265833	-0.0270211	-0.0366049	-0.0254925	-0.144454	0.0605178	0.547915	2.09	-0.00699827	-0.151105	0.0908772	0.461725	2.09
0.03	-0.126681	0.0309604	0.00164798	-1.14228	1.26912	-0.581062	0.144612	-0.0615435	-0.118061	0.191913	0.341681	0.219352	0	0.0932942	0.012077	0.0722303	0.0726605	0.204691	-0.0127998	0	-0.0277395	-0.0282871	-0.0363689	-0.0287182	-0.145531	0.0558694	0.547565	2.09	-0.0111439	-0.153741	0.0862412	0.461696	2.09
0.04	-0.128413	0.0323905	0.00170643	-1.14215	1.2689	-0.580956	0.149026	-0.0634895	-0.119319	0.19721	0.345224	0.22293	0	0.096088	0.0134368	0.0704245	0.0747529	0.206413	-0.00967297	0	-0.0288365	-0.0299576	-0.0361265	-0.0323373	-0.146211	0.0498455	0.547333	2.09	-0.0155628	-0.156539	0.0806665	0.461489	2.09
0.05	-0.130209	0.0339504	0.00195905	-1.14198	1.26868	-0.580817	0.155371	-0.0658536	-0.120798	0.20624	0.350215	0.227818	0	0.0989941	0.0148444	0.0678097	0.0770005	0.208697	-0.0049321	0	-0.0299171	-0.0318711	-0.035691	-0.0366157	-0.146919	0.0436711	0.547658	2.09	-0.0197504	-0.158467	0.0715715	0.460198	2.09
0.06	-0.131927	0.0352414	0.00214835	-1.14181	1.26847	-0.580606	0.163038	-0.0680777	-0.123259	0.217904	0.355856	0.233972	0	0.101564	0.0159109	0.064931	0.0788193	0.211014	8.31554e-05	0	-0.0312963	-0.0334836	-0.0350718	-0.0413651	-0.147897	0.0375211	0.548456	2.09	-0.0241089	-0.160068	0.061504	0.458977	2.09
0.07	-0.133812	0.0361959	0.00224209	-1.14163	1.26825	-0.580363	0.169717	-0.0699392	-0.127377	0.227326	0.360962	0.241267	0	0.104146	0.0167172	0.0628104	0.0803505	0.212916	0.00348145	0	-0.0328181	-0.0345927	-0.0345988	-0.0462704	-0.148955	0.0306616	0.549408	2.09	-0.02912	-0.161851	0.0518147	0.458376	2.09
0.08	-0.135884	0.0372746	0.002473	-1.14142	1.26802	-0.580163	0.174426	-0.0717933	-0.131562	0.232776	0.365163	0.247884	0	0.107061	0.0177841	0.0615693	0.0821848	0.214578	0.00550649	0	-0.0343306	-0.0357791	-0.0342688	-0.0515376	-0.150177	0.0236067	0.550717	2.09	-0.0344042	-0.163354	0.0405657	0.457467	2.09
0.09	-0.137612	0.0386886	0.00292551	-1.1412	1.26783	-0.580023	0.178026	-0.0738282	-0.134068	0.236916	0.368657	0.252328	0	0.109754	0.0192211	0.0604631	0.0842945	0.216268	0.0078946	0	-0.0363301	-0.0373236	-0.0336998	-0.0573268	-0.151711	0.0167543	0.552426	2.09	-0.0394166	-0.164388	0.0276336	0.455883	2.09
0.1	-0.138963	0.0400711	0.00358483	-1.14101	1.26767	-0.579944	0.181484	-0.0757507	-0.135486	0.241523	0.371587	0.255128	0	0.112046	0.020634	0.059216	0.0863381	0.218006	0.0111208	0	-0.0389623	-0.0386829	-0.0329847	-0.0634086	-0.153335	0.00910933	0.554138	2.09	-0.0443981	-0.165194	0.0145431	0.45417	2.09
0.11	-0.140551	0.0411834	0.00457152	-1.14076	1.2675	-0.579932	0.184937	-0.0773816	-0.136859	0.245777	0.374133	0.257107	0	0.114587	0.0218447	0.0580334	0.088385	0.21983	0.0146723	0	-0.0415709	-0.0395906	-0.0327642	-0.0698538	-0.155176	0.00143552	0.555984	2.09	-0.0500965	-0.165945	0.00149673	0.452719	2.09
0.12	-0.142458	0.0422237	0.00585813	-1.14043	1.2673	-0.579916	0.187947	-0.0788145	-0.137757	0.24888	0.376465	0.258114	0	0.117477	0.0229916	0.0568433	0.0906037	0.221812	0.0185102	0	-0.0439648	-0.0404736	-0.0332739	-0.0768781	-0.157594	-0.00419825	0.558321	2.09	-0.0569166	-0.166939	-0.0116775	0.451748	2.09
0.13	-0.144235	0.043478	0.00708435	-1.14004	1.2671	-0.579817	0.19068	-0.0802642	-0.13787	0.251845	0.378524	0.258209	0	0.120334	0.0242145	0.0550686	0.093193	0.224075	0.0232562	0	-0.0466739	-0.0416948	-0.0340528	-0.0840202	-0.15995	-0.00981227	0.560484	2.09	-0.064662	-0.168538	-0.0238362	0.451318	2.09
0.14	-0.145857	0.0449885	0.00800063	-1.13965	1.26694	-0.579672	0.194053	-0.0819855	-0.13824	0.256141	0.380408	0.258521	0	0.123435	0.0254797	0.051696	0.0966499	0.227077	0.0303057	0	-0.0498345	-0.043107	-0.0346259	-0.0909708	-0.161586	-0.0182333	0.562001	2.09	-0.0729018	-0.170894	-0.0330034	0.450924	2.09
0.15	-0.147789	0.0463917	0.00874717	-1.13925	1.26678	-0.579549	0.198235	-0.0837982	-0.139544	0.261211	0.382566	0.259866	0	0.12727	0.0264949	0.0465282	0.100894	0.231184	0.0400374	0	-0.0529316	-0.0442156	-0.0349499	-0.0985717	-0.163488	-0.025672	0.564067	2.09	-0.081456	-0.173691	-0.0393856	0.45003	2.09
0.16	-0.150309	0.0471899	0.00954512	-1.13881	1.26657	-0.579439	0.202475	-0.084987	-0.140553	0.265316	0.384995	0.261183	0	0.131659	0.0269795	0.0413739	0.105012	0.235807	0.0496347	0	-0.0556324	-0.0446752	-0.0352081	-0.107202	-0.166374	-0.0290038	0.567039	2.09	-0.0905054	-0.176098	-0.0466688	0.448968	2.09
0.17	-0.153165	0.0474857	0.0104944	-1.13839	1.26629	-0.579306	0.206375	-0.0853199	-0.139883	0.268169	0.386901	0.26056	0	0.136333	0.0271577	0.0379445	0.10894	0.23996	0.0565358	0	-0.0583292	-0.0448157	-0.0353992	-0.115806	-0.168889	-0.0341956	0.569259	2.09	-0.100032	-0.177741	-0.0572458	0.448438	2.09
0.18	-0.155976	0.0477073	0.0115569	-1.13803	1.26604	-0.579122	0.210261	-0.0852793	-0.13857	0.270923	0.387927	0.25813	0	0.141565	0.0272642	0.0354089	0.113877	0.24374	0.0624168	0	-0.0616255	-0.0449272	-0.0352601	-0.124033	-0.170269	-0.0450745	0.570519	2.09	-0.109541	-0.179248	-0.0685239	0.448136	2.09
0.19	-0.158797	0.0479175	0.012447	-1.1377	1.26578	-0.578913	0.214589	-0.0852994	-0.13831	0.274289	0.388803	0.256199	0	0.147662	0.0272024	0.0320212	0.120386	0.248106	0.0698208	0	-0.0653398	-0.0446664	-0.0347798	-0.132824	-0.171916	-0.0555799	0.572508	2.09	-0.118957	-0.180964	-0.0774208	0.446833	2.09
0.2	-0.162507	0.0477608	0.0129468	-1.13737	1.26541	-0.578718	0.220362	-0.0852592	-0.139225	0.278504	0.390494	0.256962	0	0.156705	0.0254459	0.0125251	0.13098	0.261992	0.102706	0	-0.0681891	-0.0437026	-0.0343405	-0.142497	-0.174398	-0.0627115	0.575575	2.09	-0.12906	-0.182094	-0.0865504	0.44469	2.09
0.21	-0.165656	0.048198	0.0132519	-1.13689	1.26508	-0.57868	0.225088	-0.0857295	-0.137497	0.282106	0.391964	0.255582	0	0.163008	0.0261316	0.0126671	0.137618	0.264825	0.103268	0	-0.0715983	-0.0431998	-0.0342095	-0.151943	-0.177775	-0.065959	0.577195	2.09	-0.139551	-0.182914	-0.0936263	0.441484	2.09
0.22	-0.169011	0.0487482	0.0138736	-1.13644	1.2647	-0.57862	0.2302	-0.0862481	-0.135336	0.286038	0.39355	0.253215	0	0.170272	0.0268268	0.0116889	0.145539	0.268886	0.106266	0	-0.0752469	-0.0429426	-0.0341432	-0.161377	-0.18054	-0.0709236	0.578353	2.09	-0.150114	-0.18363	-0.102027	0.439387	2.09
0.23	-0.172267	0.0491659	0.0147615	-1.13613	1.26432	-0.578459	0.235536	-0.0866773	-0.134311	0.290415	0.39522	0.251368	0	0.178709	0.0269871	0.00861922	0.155529	0.274623	0.113561	0	-0.0797991	-0.0426084	-0.0342204	-0.170453	-0.182749	-0.0764319	0.579366	2.09	-0.160331	-0.184658	-0.11041	0.437669	2.09
0.24	-0.175935	0.0492873	0.0156989	-1.13594	1.26388	-0.578195	0.241678	-0.0869404	-0.134665	0.295322	0.397357	0.251352	0	0.189018	0.026034	-0.000313236	0.168014	0.283637	0.130368	0	-0.0845902	-0.042074	-0.0346041	-0.178919	-0.184371	-0.0824537	0.579841	2.09	-0.17066	-0.185953	-0.118664	0.435766	2.09
0.25	-0.179807	0.0492792	0.0165736	-1.13573	1.26342	-0.57787	0.247986	-0.086911	-0.134481	0.300166	0.399681	0.250948	0	0.199739	0.0246472	-0.0106833	0.180912	0.293001	0.148843	0	-0.0895609	-0.0414589	-0.0348653	-0.187059	-0.185583	-0.088592	0.579197	2.09	-0.18119	-0.187952	-0.123692	0.433526	2.09
0.26	-0.183892	0.0491142	0.0173128	-1.13549	1.2629	-0.577555	0.254551	-0.0864212	-0.132758	0.305001	0.401652	0.24847	0	0.210527	0.023256	-0.0194243	0.193611	0.30164	0.164409	0	-0.0946082	-0.0404591	-0.0346733	-0.195554	-0.186536	-0.0957121	0.578936	2.09	-0.191443	-0.189526	-0.127833	0.430968	2.09
0.27	-0.187827	0.0484053	0.0178384	-1.13529	1.26235	-0.57732	0.261062	-0.0853048	-0.130503	0.309843	0.403109	0.245297	0	0.221265	0.0216845	-0.0250717	0.206506	0.309526	0.175393	0	-0.100299	-0.0385304	-0.0346561	-0.204113	-0.187877	-0.102578	0.580114	2.09	-0.200903	-0.188799	-0.137235	0.427662	2.09
0.28	-0.191596	0.0469719	0.0182356	-1.13513	1.26178	-0.577154	0.267494	-0.0835426	-0.128643	0.314795	0.404515	0.242653	0	0.232323	0.0194916	-0.0291609	0.220255	0.317451	0.184271	0	-0.106695	-0.0357497	-0.0352369	-0.212171	-0.190054	-0.106422	0.581484	2.09	-0.210258	-0.186811	-0.150241	0.424982	2.09
0.29	-0.195722	0.0454027	0.0184627	-1.13498	1.26113	-0.576958	0.274722	-0.0815545	-0.12631	0.320507	0.406339	0.239567	0	0.244362	0.0169154	-0.0337802	0.235094	0.325848	0.193635	0	-0.113018	-0.0330188	-0.0354585	-0.219816	-0.192281	-0.107989	0.581602	2.09	-0.220563	-0.186439	-0.157356	0.424964	2.09
0.3	-0.200546	0.0439944	0.0183511	-1.13487	1.26032	-0.576649	0.283608	-0.0795931	-0.123391	0.327771	0.408771	0.236174	0	0.257564	0.0143168	-0.0382398	0.250692	0.334346	0.202205	0	-0.118884	-0.0305055	-0.0346997	-0.227129	-0.193455	-0.11156	0.581156	2.09	-0.231226	-0.187177	-0.158904	0.426904	2.09
0.31	-0.2058	0.0421867	0.0181708	-1.13484	1.2594	-0.576254	0.293738	-0.0774056	-0.121757	0.336351	0.411736	0.234431	0	0.271578	0.0114761	-0.040583	0.266805	0.342566	0.207774	0	-0.124861	-0.0273614	-0.0341339	-0.233623	-0.193759	-0.118911	0.581542	2.09	-0.240322	-0.186167	-0.165886	0.427751	2.09
0.32	-0.211373	0.0397592	0.0184531	-1.13489	1.25839	-0.575898	0.304586	-0.0749599	-0.121929	0.345659	0.415056	0.23414	0	0.286636	0.00824093	-0.0413745	0.283985	0.350848	0.211788	0	-0.131149	-0.0235542	-0.0345936	-0.23912	-0.193954	-0.127798	0.582769	2.09	-0.246962	-0.183433	-0.180646	0.425952	2.09
